<svg width="237" height="307" viewBox="0 0 237 307" fill="none" xmlns="http://www.w3.org/2000/svg">
<path d="M224.744 239.203L223.076 238.822C217.035 237.441 210.714 239.734 207.034 244.73C198.075 256.879 185.241 266.325 169.663 270.973C130.485 282.663 89.2073 259.446 79.1678 219.355C70.101 183.163 90.6876 145.575 126.05 133.686C142.29 128.229 159.021 128.853 173.838 134.29C179.773 136.467 186.405 135.087 190.777 130.534L191.955 129.317C199.79 121.171 196.664 107.75 186.099 103.758C165.324 95.8957 141.925 94.5226 119.05 101.348C114.839 102.605 110.768 104.112 106.836 105.833L142.365 22.9661C145.944 14.6003 142.074 4.91648 133.72 1.33402C125.354 -2.24495 115.67 1.62525 112.088 9.97936L80.1285 84.5344L82.853 24.0902C83.2615 15.0019 76.224 7.29485 67.1357 6.88627C58.0474 6.47769 50.3404 13.5153 49.9318 22.6035L46.0672 108.593L32.2866 62.4095C29.6834 53.685 20.5118 48.7289 11.7873 51.3322C3.06283 53.9354 -1.90964 63.1373 0.690138 71.8502L48.5156 232.131C49.0321 233.861 49.6023 235.602 50.2193 237.328C68.3463 288.176 122.987 317.123 175.252 303.617C199.834 297.263 220.035 282.753 233.835 263.823C240.493 254.678 235.773 241.72 224.744 239.203Z" fill="#0BB08B" style="fill:#0BB08B;fill:color(display-p3 0.0424 0.6894 0.5456);fill-opacity:1;"/>
<path d="M136.857 152.151C107.616 159.284 91.0203 190.014 101.065 218.386C109.676 242.678 135.703 256.742 160.741 250.634C189.982 243.5 206.578 212.77 196.533 184.398C187.922 160.107 161.896 146.043 136.857 152.151ZM173.288 196.301C175.847 208.465 168.787 220.913 157.054 225C143.567 229.7 129.046 222.226 124.902 208.765C121.027 196.204 127.801 182.453 140.143 177.929C144.299 176.409 148.574 176.051 152.62 176.677C149.911 176.861 147.152 177.774 144.602 180.025C140.84 183.338 138.973 188.48 140.053 193.38C141.905 201.806 150.903 206.521 158.938 203.143C164.644 200.753 168.096 194.653 167.214 188.536C166.834 185.898 165.764 183.594 164.237 181.719C168.69 185.204 172.025 190.234 173.306 196.321L173.288 196.301Z" fill="#0BB08B" style="fill:#0BB08B;fill:color(display-p3 0.0424 0.6894 0.5456);fill-opacity:1;"/>
</svg>
