<svg width="263" height="340" viewBox="0 0 263 340" fill="none" xmlns="http://www.w3.org/2000/svg">
<path d="M249.506 264.978L247.655 264.556C240.948 263.026 233.931 265.566 229.845 271.1C219.9 284.558 205.651 295.022 188.357 300.171C144.862 313.121 99.0363 287.402 87.8906 242.991C77.8248 202.9 100.68 161.261 139.938 148.091C157.968 142.046 176.542 142.737 192.992 148.76C199.581 151.172 206.943 149.643 211.798 144.6L213.105 143.251C221.803 134.228 218.333 119.36 206.604 114.938C183.539 106.229 157.563 104.708 132.167 112.269C127.493 113.661 122.972 115.331 118.608 117.237L158.051 25.4407C162.025 16.1735 157.728 5.44624 148.454 1.47776C139.166 -2.48685 128.415 1.80037 124.438 11.0547L88.9572 93.6432L91.9818 26.6859C92.4354 16.6184 84.6224 8.08089 74.5328 7.62829C64.4432 7.17568 55.887 14.9716 55.4334 25.0391L51.143 120.294L35.844 69.1342C32.9539 59.4697 22.7718 53.9796 13.0861 56.8633C3.4003 59.7471 -2.12005 69.9406 0.766179 79.5922L53.8611 257.143C54.4345 259.061 55.0676 260.989 55.7525 262.901C75.8768 319.227 136.538 351.294 194.561 336.333C221.852 329.294 244.279 313.22 259.599 292.25C266.991 282.121 261.751 267.766 249.506 264.978Z" fill="white"/>
<path d="M151.936 168.545C119.474 176.447 101.049 210.489 112.201 241.918C121.761 268.827 150.655 284.406 178.452 277.64C210.915 269.738 229.339 235.697 218.187 204.267C208.628 177.358 179.733 161.779 151.936 168.545ZM192.381 217.453C195.222 230.928 187.384 244.718 174.358 249.245C159.385 254.45 143.265 246.171 138.664 231.26C134.362 217.346 141.882 202.112 155.584 197.102C160.199 195.417 164.944 195.02 169.436 195.715C166.428 195.919 163.366 196.929 160.534 199.423C156.357 203.093 154.285 208.789 155.484 214.217C157.54 223.551 167.53 228.775 176.45 225.032C182.784 222.384 186.617 215.628 185.637 208.851C185.216 205.929 184.028 203.376 182.333 201.299C187.277 205.161 190.979 210.732 192.402 217.475L192.381 217.453Z" fill="white"/>
</svg>
